<svg width="33" height="31" viewBox="0 0 33 31" fill="none" xmlns="http://www.w3.org/2000/svg">
<path d="M30.0219 23.6645C30.0491 23.9829 29.8007 24.2565 29.4844 24.2565H3.469C3.15349 24.2565 2.90529 23.9842 2.93132 23.6664L4.79566 0.912147C4.81886 0.629495 5.05263 0.411987 5.33347 0.411987H27.5423C27.8224 0.411987 28.0559 0.628405 28.0799 0.910239L30.0219 23.6645Z" fill="#1DCF65"/>
<path d="M32.0988 29.6011C32.1313 29.9983 31.8211 30.3387 31.4268 30.3387H1.59438C1.2009 30.3387 0.890922 29.9999 0.922082 29.6035L3.06376 2.34693C3.09168 1.99246 3.38426 1.71948 3.73606 1.71948H29.1958C29.5468 1.71948 29.8391 1.99137 29.868 2.34475L32.0988 29.6011Z" fill="url(#paint0_linear)"/>
<path d="M15.9232 21.6952C12.0402 21.6952 8.88135 17.863 8.88135 13.1527C8.88135 12.9073 9.07815 12.7084 9.32109 12.7084C9.56403 12.7084 9.76084 12.9072 9.76084 13.1527C9.76084 17.3731 12.5253 20.8066 15.9234 20.8066C19.3214 20.8066 22.0859 17.3731 22.0859 13.1527C22.0859 12.9073 22.2827 12.7084 22.5257 12.7084C22.7686 12.7084 22.9654 12.9072 22.9654 13.1527C22.9653 17.863 19.8062 21.6952 15.9232 21.6952Z" fill="white"/>
<path d="M20.2581 13.0335C20.1456 13.0335 20.0331 12.9901 19.9471 12.9033C19.7754 12.7298 19.7754 12.4485 19.9471 12.275L22.226 9.97268C22.3084 9.88941 22.4203 9.84253 22.5369 9.84253C22.6536 9.84253 22.7654 9.88927 22.8479 9.97268L25.1045 12.2527C25.2762 12.4262 25.2762 12.7075 25.1045 12.881C24.9327 13.0543 24.6543 13.0545 24.4826 12.881L22.5368 10.9152L20.569 12.9033C20.4831 12.9901 20.3706 13.0335 20.2581 13.0335Z" fill="white"/>
<defs>
<linearGradient id="paint0_linear" x1="25.8733" y1="26.3334" x2="7.51325" y2="4.90055" gradientUnits="userSpaceOnUse">
<stop stop-color="#52D67A"/>
<stop offset="1" stop-color="#5AEE87"/>
</linearGradient>
</defs>
</svg>
